<svg width="25" height="24" viewBox="0 0 25 24" fill="none" xmlns="http://www.w3.org/2000/svg">
<g clip-path="url(#clip0)">
<path d="M14.8309 14.12C14.5563 14.4148 14.2251 14.6512 13.8571 14.8151C13.4891 14.9791 13.0918 15.0673 12.689 15.0744C12.2862 15.0815 11.8861 15.0074 11.5125 14.8565C11.139 14.7056 10.7997 14.4811 10.5148 14.1962C10.2299 13.9113 10.0053 13.572 9.85445 13.1984C9.70356 12.8249 9.62946 12.4247 9.63657 12.0219C9.64368 11.6191 9.73185 11.2219 9.89581 10.8539C10.0598 10.4859 10.2962 10.1547 10.5909 9.88003M18.6509 17.94C16.9415 19.243 14.86 19.9649 12.7109 20C5.71094 20 1.71094 12 1.71094 12C2.95483 9.68192 4.68007 7.65663 6.77094 6.06003L18.6509 17.94ZM10.6109 4.24002C11.2993 4.0789 12.004 3.99836 12.7109 4.00003C19.7109 4.00003 23.7109 12 23.7109 12C23.1039 13.1356 22.38 14.2048 21.5509 15.19L10.6109 4.24002Z" stroke="#7394A6" stroke-width="2" stroke-linecap="round" stroke-linejoin="round"/>
<path d="M1.71094 1L23.7109 23" stroke="#7394A6" stroke-width="2" stroke-linecap="round" stroke-linejoin="round"/>
</g>
<defs>
<clipPath id="clip0">
<rect width="24" height="24" fill="white" transform="translate(0.710938)"/>
</clipPath>
</defs>
</svg>
